<mxfile host="app.diagrams.net" agent="Mozilla/5.0 (X11; Ubuntu; Linux x86_64; rv:138.0) Gecko/20100101 Firefox/138.0" version="26.2.14">
  <diagram name="Page-1" id="Ga1OnYFUsKogZ0DlLB_w">
    <mxGraphModel dx="938" dy="550" grid="1" gridSize="1" guides="1" tooltips="1" connect="1" arrows="1" fold="1" page="1" pageScale="1" pageWidth="827" pageHeight="1169" math="0" shadow="0">
      <root>
        <mxCell id="0" />
        <mxCell id="1" parent="0" />
        <mxCell id="cEm4v2QsvsLoRowAlMU9-1" value="Data Memory" style="rounded=0;whiteSpace=wrap;html=1;" vertex="1" parent="1">
          <mxGeometry x="320" y="240" width="120" height="160" as="geometry" />
        </mxCell>
        <mxCell id="cEm4v2QsvsLoRowAlMU9-2" value="" style="endArrow=classic;html=1;rounded=0;entryX=-0.003;entryY=0.808;entryDx=0;entryDy=0;entryPerimeter=0;strokeWidth=1;" edge="1" parent="1">
          <mxGeometry width="50" height="50" relative="1" as="geometry">
            <mxPoint x="237" y="376" as="sourcePoint" />
            <mxPoint x="320" y="375.82000000000005" as="targetPoint" />
          </mxGeometry>
        </mxCell>
        <mxCell id="cEm4v2QsvsLoRowAlMU9-8" value="clk" style="edgeLabel;html=1;align=center;verticalAlign=middle;resizable=0;points=[];" vertex="1" connectable="0" parent="cEm4v2QsvsLoRowAlMU9-2">
          <mxGeometry x="-0.9006" y="1" relative="1" as="geometry">
            <mxPoint x="-14" as="offset" />
          </mxGeometry>
        </mxCell>
        <mxCell id="cEm4v2QsvsLoRowAlMU9-3" value="" style="triangle;whiteSpace=wrap;html=1;" vertex="1" parent="1">
          <mxGeometry x="320" y="371" width="10" height="10" as="geometry" />
        </mxCell>
        <mxCell id="cEm4v2QsvsLoRowAlMU9-5" value="" style="endArrow=classic;html=1;rounded=0;strokeWidth=2;entryX=-0.004;entryY=0.3;entryDx=0;entryDy=0;entryPerimeter=0;" edge="1" parent="1" target="cEm4v2QsvsLoRowAlMU9-1">
          <mxGeometry width="50" height="50" relative="1" as="geometry">
            <mxPoint x="236" y="288" as="sourcePoint" />
            <mxPoint x="321" y="288" as="targetPoint" />
          </mxGeometry>
        </mxCell>
        <mxCell id="cEm4v2QsvsLoRowAlMU9-14" value="&lt;div&gt;rs2_value&lt;/div&gt;" style="edgeLabel;html=1;align=center;verticalAlign=middle;resizable=0;points=[];" vertex="1" connectable="0" parent="cEm4v2QsvsLoRowAlMU9-5">
          <mxGeometry x="-0.899" y="-2" relative="1" as="geometry">
            <mxPoint x="-32" y="-3" as="offset" />
          </mxGeometry>
        </mxCell>
        <mxCell id="cEm4v2QsvsLoRowAlMU9-6" value="" style="endArrow=classic;html=1;rounded=0;strokeWidth=2;" edge="1" parent="1">
          <mxGeometry width="50" height="50" relative="1" as="geometry">
            <mxPoint x="236" y="261" as="sourcePoint" />
            <mxPoint x="320" y="261" as="targetPoint" />
          </mxGeometry>
        </mxCell>
        <mxCell id="cEm4v2QsvsLoRowAlMU9-13" value="alu_result[31:0]" style="edgeLabel;html=1;align=center;verticalAlign=middle;resizable=0;points=[];" vertex="1" connectable="0" parent="cEm4v2QsvsLoRowAlMU9-6">
          <mxGeometry x="-0.3824" relative="1" as="geometry">
            <mxPoint x="-71" y="-1" as="offset" />
          </mxGeometry>
        </mxCell>
        <mxCell id="cEm4v2QsvsLoRowAlMU9-11" value="" style="endArrow=classic;html=1;rounded=0;entryX=-0.003;entryY=0.635;entryDx=0;entryDy=0;entryPerimeter=0;" edge="1" parent="1" target="cEm4v2QsvsLoRowAlMU9-1">
          <mxGeometry width="50" height="50" relative="1" as="geometry">
            <mxPoint x="236" y="342" as="sourcePoint" />
            <mxPoint x="250" y="342" as="targetPoint" />
          </mxGeometry>
        </mxCell>
        <mxCell id="cEm4v2QsvsLoRowAlMU9-12" value="op_class(S)" style="edgeLabel;html=1;align=center;verticalAlign=middle;resizable=0;points=[];" vertex="1" connectable="0" parent="cEm4v2QsvsLoRowAlMU9-11">
          <mxGeometry x="-0.4762" y="1" relative="1" as="geometry">
            <mxPoint x="-58" as="offset" />
          </mxGeometry>
        </mxCell>
        <mxCell id="cEm4v2QsvsLoRowAlMU9-15" value="" style="endArrow=classic;html=1;rounded=0;strokeWidth=2;" edge="1" parent="1">
          <mxGeometry width="50" height="50" relative="1" as="geometry">
            <mxPoint x="440" y="318" as="sourcePoint" />
            <mxPoint x="502" y="318" as="targetPoint" />
          </mxGeometry>
        </mxCell>
        <mxCell id="cEm4v2QsvsLoRowAlMU9-16" value="mem_out[31:0]" style="edgeLabel;html=1;align=center;verticalAlign=middle;resizable=0;points=[];" vertex="1" connectable="0" parent="cEm4v2QsvsLoRowAlMU9-15">
          <mxGeometry x="0.597" relative="1" as="geometry">
            <mxPoint x="52" y="-2" as="offset" />
          </mxGeometry>
        </mxCell>
      </root>
    </mxGraphModel>
  </diagram>
</mxfile>
